<svg width="14" height="15" viewBox="0 0 14 15" fill="none" xmlns="http://www.w3.org/2000/svg">
<path fill-rule="evenodd" clip-rule="evenodd" d="M4.25203 11.4239L1.8061 11.1427C-0.0485648 10.9295 -0.574575 8.48437 1.02838 7.52739L1.0933 7.48863C1.966 6.96761 2.50045 6.02609 2.50045 5.00969V4.5C2.50045 2.01472 4.51517 0 7.00045 0C9.48573 0 11.5005 2.01472 11.5005 4.5V5.00969C11.5005 6.02609 12.0349 6.96761 12.9076 7.48863L12.9725 7.52739C14.5755 8.48438 14.0495 10.9295 12.1948 11.1427L9.65203 11.435V11.8C9.65203 13.2912 8.4432 14.5 6.95203 14.5C5.46086 14.5 4.25203 13.2912 4.25203 11.8V11.4239ZM8.15203 11.5H5.75203V11.8C5.75203 12.4627 6.28929 13 6.95203 13C7.61477 13 8.15203 12.4627 8.15203 11.8V11.5ZM5.00045 10H9.00045L12.0235 9.65252C12.453 9.60316 12.5748 9.03693 12.2036 8.81532L12.1387 8.77656C12.0591 8.72907 11.9815 8.67929 11.9057 8.62731C11.7506 8.52097 11.6036 8.40546 11.4651 8.28179C11.4405 8.25985 11.4162 8.23766 11.3922 8.21521C10.5144 7.39498 10.0005 6.23833 10.0005 5.00969V4.5C10.0005 2.84315 8.65731 1.5 7.00045 1.5C5.3436 1.5 4.00045 2.84315 4.00045 4.5V5.00969C4.00045 6.23833 3.48651 7.39498 2.60871 8.21521C2.58469 8.23766 2.56039 8.25985 2.53583 8.28179C2.39734 8.40546 2.25029 8.52097 2.09523 8.62731C2.01945 8.67928 1.94176 8.72907 1.86222 8.77656L1.79729 8.81532C1.4261 9.03693 1.5479 9.60316 1.97739 9.65252L5.00045 10Z" fill="#E3E3E3"/>
</svg>
